<?xml version="1.0"?>
<svg width="349.62" height="351.26" xmlns="http://www.w3.org/2000/svg" xmlns:svg="http://www.w3.org/2000/svg">
 <defs>
  <style>.cls-1{fill:#733a10;}.cls-2{fill:#cea331;}</style>
 </defs>
 <g class="layer">
  <title>Layer 1</title>
  <path class="cls-2" d="m301.24,351.26l-252.86,0c-18.45,0 -33.46,-15.01 -33.46,-33.46l0,-18.15c0,-18.45 15.01,-33.46 33.46,-33.46l252.85,0c18.45,0 33.46,15.01 33.46,33.46l0,18.15c0,18.45 -15.01,33.46 -33.46,33.46l0.01,0zm-252.86,-67.93c-9,0 -16.33,7.33 -16.33,16.33l0,18.15c0,9 7.33,16.33 16.33,16.33l252.85,0c9,0 16.33,-7.33 16.33,-16.33l0,-18.15c0,-9 -7.33,-16.33 -16.33,-16.33l-252.85,0z" id="svg_1" transform="matrix(1 0 0 1 0 0)"/>
  <path class="cls-2" d="m317.06,154.02l-284.5,0c-4.83,0 -9.45,-2 -12.68,-5.47c-3.11,-3.35 -4.71,-7.86 -4.39,-12.37c2.69,-37.03 20.54,-71.42 50.27,-96.84c29.68,-25.37 68.4,-39.34 109.05,-39.34s79.38,13.97 109.04,39.33c29.73,25.42 47.59,59.81 50.27,96.84c0.33,4.51 -1.27,9.02 -4.39,12.37c-3.24,3.48 -7.86,5.47 -12.68,5.47l0.01,0.01zm-142.25,-137.94c-75.41,0 -138.34,53.26 -143.28,121.26c0,0.03 0,0.11 0.12,0.26c0.1,0.1 0.38,0.35 0.91,0.35l284.5,0c0.53,0 0.81,-0.24 0.91,-0.35c0.13,-0.14 0.12,-0.22 0.12,-0.26c-4.93,-67.99 -67.87,-121.26 -143.28,-121.26z" id="svg_2"/>
  <g id="svg_3">
   <g id="svg_4">
    <path class="cls-2" d="m8.76,206.64c-3.39,0 -6.61,-1.98 -8.04,-5.28c-1.92,-4.44 0.13,-9.59 4.56,-11.51l40.63,-17.56c4.44,-1.92 9.59,0.13 11.51,4.56s-0.13,9.59 -4.56,11.51l-40.63,17.56c-1.13,0.49 -2.31,0.72 -3.47,0.72z" id="svg_5"/>
    <path class="cls-2" d="m91.8,206.64c-1.16,0 -2.34,-0.23 -3.47,-0.72l-40.63,-17.56c-4.44,-1.92 -6.48,-7.07 -4.56,-11.51c1.92,-4.44 7.07,-6.48 11.51,-4.56l40.63,17.56c4.44,1.92 6.48,7.07 4.56,11.51c-1.43,3.31 -4.65,5.28 -8.04,5.28z" id="svg_6"/>
   </g>
   <g id="svg_7">
    <path class="cls-2" d="m90.96,206.64c-3.39,0 -6.61,-1.98 -8.04,-5.28c-1.92,-4.44 0.13,-9.59 4.56,-11.51l40.63,-17.56c4.44,-1.92 9.59,0.13 11.51,4.56s-0.13,9.59 -4.56,11.51l-40.63,17.56c-1.13,0.49 -2.31,0.72 -3.47,0.72z" id="svg_8"/>
    <path class="cls-2" d="m174,206.64c-1.16,0 -2.34,-0.23 -3.47,-0.72l-40.63,-17.56c-4.44,-1.92 -6.48,-7.07 -4.56,-11.51c1.92,-4.44 7.07,-6.48 11.51,-4.56l40.63,17.56c4.44,1.92 6.48,7.07 4.56,11.51c-1.43,3.31 -4.65,5.28 -8.04,5.28z" id="svg_9"/>
   </g>
   <g id="svg_10">
    <path class="cls-2" d="m174.9,206.64c-3.39,0 -6.61,-1.98 -8.04,-5.28c-1.92,-4.44 0.13,-9.59 4.56,-11.51l40.63,-17.56c4.43,-1.92 9.59,0.12 11.51,4.56c1.92,4.44 -0.13,9.59 -4.56,11.51l-40.63,17.56c-1.13,0.49 -2.31,0.72 -3.47,0.72z" id="svg_11"/>
    <path class="cls-2" d="m257.94,206.64c-1.16,0 -2.34,-0.23 -3.47,-0.72l-40.63,-17.56c-4.44,-1.92 -6.48,-7.07 -4.56,-11.51c1.92,-4.44 7.07,-6.48 11.51,-4.56l40.63,17.56c4.44,1.92 6.48,7.07 4.56,11.51c-1.43,3.31 -4.65,5.28 -8.04,5.28z" id="svg_12"/>
   </g>
   <g id="svg_13">
    <path class="cls-2" d="m257.82,206.64c-3.39,0 -6.61,-1.98 -8.04,-5.28c-1.92,-4.44 0.13,-9.59 4.56,-11.51l40.63,-17.56c4.43,-1.92 9.59,0.12 11.51,4.56c1.92,4.44 -0.13,9.59 -4.56,11.51l-40.63,17.56c-1.13,0.49 -2.31,0.72 -3.47,0.72z" id="svg_14"/>
    <path class="cls-2" d="m340.86,206.64c-1.16,0 -2.34,-0.23 -3.47,-0.72l-40.63,-17.56c-4.44,-1.92 -6.48,-7.07 -4.56,-11.51c1.92,-4.44 7.07,-6.48 11.51,-4.56l40.63,17.56c4.44,1.92 6.48,7.07 4.56,11.51c-1.43,3.31 -4.65,5.28 -8.04,5.28z" id="svg_15"/>
   </g>
   <g id="svg_16">
    <path class="cls-2" d="m8.76,245.95c-3.39,0 -6.61,-1.98 -8.04,-5.28c-1.92,-4.44 0.13,-9.59 4.56,-11.51l40.63,-17.56c4.44,-1.92 9.59,0.13 11.51,4.56s-0.13,9.59 -4.56,11.51l-40.63,17.56c-1.13,0.49 -2.31,0.72 -3.47,0.72z" id="svg_17"/>
    <path class="cls-2" d="m91.8,245.95c-1.16,0 -2.34,-0.23 -3.47,-0.72l-40.63,-17.56c-4.44,-1.92 -6.48,-7.07 -4.56,-11.51s7.07,-6.48 11.51,-4.56l40.63,17.56c4.44,1.92 6.48,7.07 4.56,11.51c-1.43,3.31 -4.65,5.28 -8.04,5.28z" id="svg_18"/>
   </g>
   <g id="svg_19">
    <path class="cls-2" d="m90.96,245.95c-3.39,0 -6.61,-1.98 -8.04,-5.28c-1.92,-4.44 0.13,-9.59 4.56,-11.51l40.63,-17.56c4.44,-1.92 9.59,0.13 11.51,4.56s-0.13,9.59 -4.56,11.51l-40.63,17.56c-1.13,0.49 -2.31,0.72 -3.47,0.72z" id="svg_20"/>
    <path class="cls-2" d="m174,245.95c-1.16,0 -2.34,-0.23 -3.47,-0.72l-40.63,-17.56c-4.44,-1.92 -6.48,-7.07 -4.56,-11.51c1.92,-4.44 7.07,-6.48 11.51,-4.56l40.63,17.56c4.44,1.92 6.48,7.07 4.56,11.51c-1.43,3.31 -4.65,5.28 -8.04,5.28z" id="svg_21"/>
   </g>
   <g id="svg_22">
    <path class="cls-2" d="m174.9,245.95c-3.39,0 -6.61,-1.98 -8.04,-5.28c-1.92,-4.44 0.13,-9.59 4.56,-11.51l40.63,-17.56c4.43,-1.91 9.59,0.12 11.51,4.56c1.92,4.44 -0.13,9.59 -4.56,11.51l-40.63,17.56c-1.13,0.49 -2.31,0.72 -3.47,0.72z" id="svg_23"/>
    <path class="cls-2" d="m257.94,245.95c-1.16,0 -2.34,-0.23 -3.47,-0.72l-40.63,-17.56c-4.44,-1.92 -6.48,-7.07 -4.56,-11.51c1.92,-4.44 7.07,-6.48 11.51,-4.56l40.63,17.56c4.44,1.92 6.48,7.07 4.56,11.51c-1.43,3.31 -4.65,5.28 -8.04,5.28z" id="svg_24"/>
   </g>
   <g id="svg_25">
    <path class="cls-2" d="m257.82,245.95c-3.39,0 -6.61,-1.98 -8.04,-5.28c-1.92,-4.44 0.13,-9.59 4.56,-11.51l40.63,-17.56c4.43,-1.91 9.59,0.12 11.51,4.56c1.92,4.44 -0.13,9.59 -4.56,11.51l-40.63,17.56c-1.13,0.49 -2.31,0.72 -3.47,0.72z" id="svg_26"/>
    <path class="cls-2" d="m340.86,245.95c-1.16,0 -2.34,-0.23 -3.47,-0.72l-40.63,-17.56c-4.44,-1.92 -6.48,-7.07 -4.56,-11.51c1.92,-4.44 7.07,-6.48 11.51,-4.56l40.63,17.56c4.44,1.92 6.48,7.07 4.56,11.51c-1.43,3.31 -4.65,5.28 -8.04,5.28z" id="svg_27"/>
   </g>
  </g>
  <path class="cls-2" d="m49.65,121.9c-1.01,0 -2.03,-0.19 -3.02,-0.59c-4.11,-1.67 -6.09,-6.36 -4.42,-10.47c14.31,-35.23 42.55,-63.76 79.53,-80.33c4.05,-1.82 8.81,0 10.62,4.05c1.82,4.05 0,8.81 -4.05,10.62c-33.18,14.87 -58.47,40.33 -71.21,71.71c-1.27,3.12 -4.28,5.02 -7.45,5.02l0,-0.01z" id="svg_28"/>
  <g id="svg_29">GE</g>
  <g id="svg_47">AR</g>
  <text fill="#ffffff" font-family="Serif" font-size="24" id="svg_54" letter-spacing="3" stroke="#000000" stroke-width="0" text-anchor="middle" transform="matrix(1 0 0 1 0 0) matrix(3.73498 0 0 2.40033 -372.352 -117.936)" x="148.48" xml:space="preserve" y="97.7">ART</text>
  <text fill="#ffffff" font-family="Serif" font-size="24" id="svg_55" letter-spacing="5" stroke="#000000" stroke-width="0" text-anchor="middle" transform="matrix(1 0 0 1 0 0) matrix(2.5585 0 0 2.91591 -320.826 -323.114)" x="195.21" xml:space="preserve" y="180.14">BUR</text>
  <text fill="#ffffff" font-family="Serif" font-size="24" id="svg_56" letter-spacing="3" stroke="#000000" stroke-width="0" text-anchor="middle" transform="matrix(3.12939 0 0 2.4381 -275.715 -297.158)" x="144.86" xml:space="preserve" y="226.55">GER</text>
  <text fill="#ffffff" font-family="Sans-serif" font-size="16" id="svg_58" letter-spacing="3" stroke="#000000" stroke-width="0" text-anchor="middle" transform="matrix(1.31083 0 0 1 -55.0355 0)" x="174.21" xml:space="preserve" y="314.14">ARTE DEI SAPORI</text>
 </g>
</svg>
